<svg xmlns="http://www.w3.org/2000/svg" viewBox="0 0 461.1 310.99"><defs><style>.cls-1{fill:none;stroke:#fa7921;stroke-miterlimit:10;stroke-width:11px;}.cls-2{fill:#2c7be5;}</style></defs><title>licenta logo</title><g id="Layer_2" data-name="Layer 2"><g id="Layer_1-2" data-name="Layer 1"><polyline class="cls-1" points="34.1 158.8 100.34 158.8 114.43 178.8 133.6 158.8 172.87 158.8 186.97 38.8 207.25 158.8 223.25 261.8 253.25 158.8 271.47 91.8 295.61 159.8 295.61 159.8 322.61 110.8 348.61 158.8 461.11 158.8"/><path class="cls-2" d="M367,293.2q31.41-10.05,32.49-51.21V208q0-35.75,28-48.74-28-12.69-28-48.73V79.08q0-43.62-32.34-54L373,7.3Q400.42,15,414.19,32.44t13.92,46V111q0,37,32.8,37v22.43q-32.81,0-32.8,37.6v31.25q0,29.09-14,46.56T373,311Z"/><path class="cls-2" d="M93.91,25.09Q62.5,35.14,61.42,76.3v34q0,35.74-28,48.74,28,12.68,28,48.73v31.41q0,43.62,32.33,54L87.88,311q-27.39-7.73-41.16-25.14t-13.92-46V207.34q0-37-32.8-37V147.93q32.81,0,32.8-37.6V79.08q0-29.08,14-46.57T87.88,7.3Z"/></g></g></svg>